<svg xmlns="http://www.w3.org/2000/svg" width="1440" height="900"><path d="M788,483L661,442L784,550Z" fill="#3db0c4" stroke="#3db0c4" stroke-width="1.51"/><path d="M661,442L560,565L784,550Z" fill="#45b2c3" stroke="#45b2c3" stroke-width="1.51"/><path d="M493,476L523,559L560,565Z" fill="#58b6c0" stroke="#58b6c0" stroke-width="1.51"/><path d="M788,483L821,326L661,442Z" fill="#47b5c3" stroke="#47b5c3" stroke-width="1.51"/><path d="M951,418L821,326L788,483Z" fill="#44afc2" stroke="#44afc2" stroke-width="1.51"/><path d="M661,442L493,476L560,565Z" fill="#55b8c1" stroke="#55b8c1" stroke-width="1.51"/><path d="M438,343L493,476L661,442Z" fill="#61c0c1" stroke="#61c0c1" stroke-width="1.51"/><path d="M821,326L681,288L661,442Z" fill="#55bbc2" stroke="#55bbc2" stroke-width="1.51"/><path d="M784,550L951,418L788,483Z" fill="#38aac3" stroke="#38aac3" stroke-width="1.51"/><path d="M523,559L530,750L560,565Z" fill="#52adbf" stroke="#52adbf" stroke-width="1.51"/><path d="M560,565L577,792L784,550Z" fill="#42a8c1" stroke="#42a8c1" stroke-width="1.51"/><path d="M368,719L530,750L523,559Z" fill="#59aabc" stroke="#59aabc" stroke-width="1.51"/><path d="M530,750L577,792L560,565Z" fill="#4fa2bc" stroke="#4fa2bc" stroke-width="1.51"/><path d="M784,550L1039,631L951,418Z" fill="#2f9fc2" stroke="#2f9fc2" stroke-width="1.51"/><path d="M681,288L438,343L661,442Z" fill="#64c1c0" stroke="#64c1c0" stroke-width="1.51"/><path d="M493,476L368,719L523,559Z" fill="#5eb4be" stroke="#5eb4be" stroke-width="1.51"/><path d="M577,792L825,822L784,550Z" fill="#3599be" stroke="#3599be" stroke-width="1.51"/><path d="M825,822L1039,631L784,550Z" fill="#2795c0" stroke="#2795c0" stroke-width="1.51"/><path d="M951,418L1033,327L821,326Z" fill="#4bacc1" stroke="#4bacc1" stroke-width="1.51"/><path d="M821,326L872,176L681,288Z" fill="#61bcbf" stroke="#61bcbf" stroke-width="1.51"/><path d="M1214,461L1033,327L951,418Z" fill="#409dbd" stroke="#409dbd" stroke-width="1.51"/><path d="M1033,327L872,176L821,326Z" fill="#5ab3bf" stroke="#5ab3bf" stroke-width="1.51"/><path d="M681,288L646,109L438,343Z" fill="#75c8be" stroke="#75c8be" stroke-width="1.51"/><path d="M272,689L368,719L493,476Z" fill="#6bb4bd" stroke="#6bb4bd" stroke-width="1.51"/><path d="M530,750L410,896L577,792Z" fill="#5595b5" stroke="#5595b5" stroke-width="1.51"/><path d="M872,176L646,109L681,288Z" fill="#74c5bf" stroke="#74c5bf" stroke-width="1.51"/><path d="M1033,327L902,158L872,176Z" fill="#66b4be" stroke="#66b4be" stroke-width="1.51"/><path d="M734,-1L646,109L872,176Z" fill="#88cbbd" stroke="#88cbbd" stroke-width="1.51"/><path d="M438,343L326,349L493,476Z" fill="#75c7be" stroke="#75c7be" stroke-width="1.51"/><path d="M402,131L326,349L438,343Z" fill="#88d0bb" stroke="#88d0bb" stroke-width="1.51"/><path d="M410,896L708,945L577,792Z" fill="#4f8bb2" stroke="#4f8bb2" stroke-width="1.51"/><path d="M577,792L708,945L825,822Z" fill="#3b88b5" stroke="#3b88b5" stroke-width="1.51"/><path d="M825,822L1001,840L1039,631Z" fill="#2482b9" stroke="#2482b9" stroke-width="1.51"/><path d="M1054,909L1001,840L845,1036Z" fill="#2a6fb0" stroke="#2a6fb0" stroke-width="1.51"/><path d="M1033,327L1072,235L902,158Z" fill="#5fadbd" stroke="#5fadbd" stroke-width="1.51"/><path d="M1214,461L1072,235L1033,327Z" fill="#4d9dba" stroke="#4d9dba" stroke-width="1.51"/><path d="M220,473L272,689L493,476Z" fill="#78bfbe" stroke="#78bfbe" stroke-width="1.51"/><path d="M368,719L410,896L530,750Z" fill="#609cb5" stroke="#609cb5" stroke-width="1.51"/><path d="M1039,631L1214,461L951,418Z" fill="#3095be" stroke="#3095be" stroke-width="1.51"/><path d="M1001,840L1139,718L1039,631Z" fill="#237db8" stroke="#237db8" stroke-width="1.51"/><path d="M1139,718L1182,605L1039,631Z" fill="#2282b9" stroke="#2282b9" stroke-width="1.51"/><path d="M266,959L410,896L368,719Z" fill="#6e97b0" stroke="#6e97b0" stroke-width="1.51"/><path d="M646,109L402,131L438,343Z" fill="#89d0bb" stroke="#89d0bb" stroke-width="1.51"/><path d="M326,349L220,473L493,476Z" fill="#7bc8be" stroke="#7bc8be" stroke-width="1.51"/><path d="M184,446L220,473L326,349Z" fill="#8ccebc" stroke="#8ccebc" stroke-width="1.51"/><path d="M1182,605L1214,461L1039,631Z" fill="#2b88ba" stroke="#2b88ba" stroke-width="1.51"/><path d="M646,109L465,-32L402,131Z" fill="#a0d8b9" stroke="#a0d8b9" stroke-width="1.51"/><path d="M902,158L734,-1L872,176Z" fill="#81c3bd" stroke="#81c3bd" stroke-width="1.51"/><path d="M936,-167L734,-1L902,158Z" fill="#93c7bc" stroke="#93c7bc" stroke-width="1.51"/><path d="M845,1036L1001,840L825,822Z" fill="#2f77b2" stroke="#2f77b2" stroke-width="1.51"/><path d="M1001,840L1054,909L1139,718Z" fill="#2471b1" stroke="#2471b1" stroke-width="1.51"/><path d="M220,473L157,730L272,689Z" fill="#85bcbb" stroke="#85bcbb" stroke-width="1.51"/><path d="M66,349L184,446L326,349Z" fill="#98d4bb" stroke="#98d4bb" stroke-width="1.51"/><path d="M708,945L845,1036L825,822Z" fill="#377ab1" stroke="#377ab1" stroke-width="1.51"/><path d="M815,1130L845,1036L708,945Z" fill="#3a6fab" stroke="#3a6fab" stroke-width="1.51"/><path d="M272,689L266,959L368,719Z" fill="#76a2b4" stroke="#76a2b4" stroke-width="1.51"/><path d="M37,690L157,730L220,473Z" fill="#8dbfbb" stroke="#8dbfbb" stroke-width="1.51"/><path d="M402,131L284,39L326,349Z" fill="#a2dab8" stroke="#a2dab8" stroke-width="1.51"/><path d="M624,-128L465,-32L646,109Z" fill="#a4d8ba" stroke="#a4d8ba" stroke-width="1.51"/><path d="M1182,605L1313,447L1214,461Z" fill="#3384b6" stroke="#3384b6" stroke-width="1.51"/><path d="M1214,461L1373,267L1072,235Z" fill="#5192b5" stroke="#5192b5" stroke-width="1.51"/><path d="M1335,653L1313,447L1182,605Z" fill="#2e7bb4" stroke="#2e7bb4" stroke-width="1.51"/><path d="M1335,653L1182,605L1139,718Z" fill="#2477b4" stroke="#2477b4" stroke-width="1.51"/><path d="M1032,1075L1119,995L1054,909Z" fill="#295ea8" stroke="#295ea8" stroke-width="1.51"/><path d="M678,1173L815,1130L708,945Z" fill="#3a6fa4" stroke="#3a6fa4" stroke-width="1.51"/><path d="M1072,235L1146,61L902,158Z" fill="#74afba" stroke="#74afba" stroke-width="1.51"/><path d="M1373,267L1146,61L1072,235Z" fill="#6b9cb4" stroke="#6b9cb4" stroke-width="1.51"/><path d="M410,896L678,1173L708,945Z" fill="#4e7cac" stroke="#4e7cac" stroke-width="1.51"/><path d="M157,730L266,959L272,689Z" fill="#80a5b3" stroke="#80a5b3" stroke-width="1.51"/><path d="M1054,909L1277,820L1139,718Z" fill="#2369ae" stroke="#2369ae" stroke-width="1.51"/><path d="M1032,1075L1054,909L845,1036Z" fill="#2c65ac" stroke="#2c65ac" stroke-width="1.51"/><path d="M465,-32L284,39L402,131Z" fill="#b1dfb7" stroke="#b1dfb7" stroke-width="1.51"/><path d="M1277,820L1335,653L1139,718Z" fill="#246bae" stroke="#246bae" stroke-width="1.51"/><path d="M734,-1L624,-128L646,109Z" fill="#9cd4bb" stroke="#9cd4bb" stroke-width="1.51"/><path d="M465,-32L267,-128L284,39Z" fill="#c0e5b5" stroke="#c0e5b5" stroke-width="1.51"/><path d="M804,-257L624,-128L734,-1Z" fill="#a5d7bc" stroke="#a5d7bc" stroke-width="1.51"/><path d="M1119,995L1277,820L1054,909Z" fill="#255fa9" stroke="#255fa9" stroke-width="1.51"/><path d="M815,1130L1032,1075L845,1036Z" fill="#2f64a3" stroke="#2f64a3" stroke-width="1.51"/><path d="M405,1180L678,1173L410,896Z" fill="#5579a1" stroke="#5579a1" stroke-width="1.51"/><path d="M1250,1202L1203,1103L1032,1075Z" fill="#204a92" stroke="#204a92" stroke-width="1.51"/><path d="M184,446L37,690L220,473Z" fill="#90c8bc" stroke="#90c8bc" stroke-width="1.51"/><path d="M284,39L66,349L326,349Z" fill="#a4dab8" stroke="#a4dab8" stroke-width="1.51"/><path d="M266,959L335,1077L410,896Z" fill="#7189ab" stroke="#7189ab" stroke-width="1.51"/><path d="M1146,61L1053,-121L902,158Z" fill="#8ab7b9" stroke="#8ab7b9" stroke-width="1.51"/><path d="M1336,67L1153,-7L1146,61Z" fill="#86a4b1" stroke="#86a4b1" stroke-width="1.51"/><path d="M66,349L19,439L184,446Z" fill="#9ed5bb" stroke="#9ed5bb" stroke-width="1.51"/><path d="M157,730L51,895L266,959Z" fill="#879faf" stroke="#879faf" stroke-width="1.51"/><path d="M266,959L180,1112L335,1077Z" fill="#7a86a5" stroke="#7a86a5" stroke-width="1.51"/><path d="M19,439L37,690L184,446Z" fill="#97cbbc" stroke="#97cbbc" stroke-width="1.51"/><path d="M1555,441L1373,267L1313,447Z" fill="#497eae" stroke="#497eae" stroke-width="1.51"/><path d="M1313,447L1373,267L1214,461Z" fill="#4687b3" stroke="#4687b3" stroke-width="1.51"/><path d="M1053,-121L936,-167L902,158Z" fill="#93c1bb" stroke="#93c1bb" stroke-width="1.51"/><path d="M1153,-7L1053,-121L1146,61Z" fill="#8fb0b5" stroke="#8fb0b5" stroke-width="1.51"/><path d="M180,1112L405,1180L335,1077Z" fill="#6d7e99" stroke="#6d7e99" stroke-width="1.51"/><path d="M335,1077L405,1180L410,896Z" fill="#6880a5" stroke="#6880a5" stroke-width="1.51"/><path d="M624,-128L401,-288L465,-32Z" fill="#b8e1b8" stroke="#b8e1b8" stroke-width="1.51"/><path d="M804,-257L638,-233L624,-128Z" fill="#abdac2" stroke="#abdac2" stroke-width="1.51"/><path d="M1335,653L1461,546L1313,447Z" fill="#3375b0" stroke="#3375b0" stroke-width="1.51"/><path d="M1499,844L1461,546L1335,653Z" fill="#2a63aa" stroke="#2a63aa" stroke-width="1.51"/><path d="M-60,779L51,895L37,690Z" fill="#94acb2" stroke="#94acb2" stroke-width="1.51"/><path d="M37,690L51,895L157,730Z" fill="#8fadb4" stroke="#8fadb4" stroke-width="1.51"/><path d="M1277,820L1499,844L1335,653Z" fill="#265ca7" stroke="#265ca7" stroke-width="1.51"/><path d="M1119,995L1305,988L1277,820Z" fill="#2555a3" stroke="#2555a3" stroke-width="1.51"/><path d="M1203,1103L1305,988L1119,995Z" fill="#274da0" stroke="#274da0" stroke-width="1.51"/><path d="M1153,-7L1186,-238L1053,-121Z" fill="#99b2b4" stroke="#99b2b4" stroke-width="1.51"/><path d="M1373,267L1336,67L1146,61Z" fill="#7698af" stroke="#7698af" stroke-width="1.51"/><path d="M1521,55L1336,67L1373,267Z" fill="#778dab" stroke="#778dab" stroke-width="1.51"/><path d="M1250,1202L1032,1075L815,1130Z" fill="#225697" stroke="#225697" stroke-width="1.51"/><path d="M1032,1075L1203,1103L1119,995Z" fill="#27539f" stroke="#27539f" stroke-width="1.51"/><path d="M936,-167L804,-257L734,-1Z" fill="#a2cfbc" stroke="#a2cfbc" stroke-width="1.51"/><path d="M1186,-238L804,-257L936,-167Z" fill="#a0c5c3" stroke="#a0c5c3" stroke-width="1.51"/><path d="M284,39L57,68L66,349Z" fill="#bce4b5" stroke="#bce4b5" stroke-width="1.51"/><path d="M66,349L-42,256L19,439Z" fill="#abdbb9" stroke="#abdbb9" stroke-width="1.51"/><path d="M255,-186L267,-128L401,-288Z" fill="#d0ecbb" stroke="#d0ecbb" stroke-width="1.51"/><path d="M267,-128L105,9L284,39Z" fill="#ceebb4" stroke="#ceebb4" stroke-width="1.51"/><path d="M105,9L57,68L284,39Z" fill="#ceebb4" stroke="#ceebb4" stroke-width="1.51"/><path d="M19,439L-81,589L37,690Z" fill="#9cc8bb" stroke="#9cc8bb" stroke-width="1.51"/><path d="M57,68L-42,256L66,349Z" fill="#b9e2b6" stroke="#b9e2b6" stroke-width="1.51"/><path d="M-205,611L-81,589L-240,380Z" fill="#a5d0c4" stroke="#a5d0c4" stroke-width="1.51"/><path d="M51,895L180,1112L266,959Z" fill="#8690a9" stroke="#8690a9" stroke-width="1.51"/><path d="M-81,589L-60,779L37,690Z" fill="#9abcb8" stroke="#9abcb8" stroke-width="1.51"/><path d="M51,895L5,1094L180,1112Z" fill="#8d8da7" stroke="#8d8da7" stroke-width="1.51"/><path d="M401,-288L624,-128L638,-233Z" fill="#b6e0c0" stroke="#b6e0c0" stroke-width="1.51"/><path d="M401,-288L267,-128L465,-32Z" fill="#c5e7b7" stroke="#c5e7b7" stroke-width="1.51"/><path d="M267,-128L255,-186L105,9Z" fill="#d6efb3" stroke="#d6efb3" stroke-width="1.51"/><path d="M-45,-30L-90,85L57,68Z" fill="#daf1b3" stroke="#daf1b3" stroke-width="1.51"/><path d="M1491,1163L1440,936L1305,988Z" fill="#263c97" stroke="#263c97" stroke-width="1.51"/><path d="M1305,988L1440,936L1277,820Z" fill="#254ea0" stroke="#254ea0" stroke-width="1.51"/><path d="M1461,546L1555,441L1313,447Z" fill="#3b76ae" stroke="#3b76ae" stroke-width="1.51"/><path d="M1621,452L1555,441L1461,546Z" fill="#396ea6" stroke="#396ea6" stroke-width="1.51"/><path d="M804,-257L401,-288L638,-233Z" fill="#b3dec6" stroke="#b3dec6" stroke-width="1.51"/><path d="M1440,936L1499,844L1277,820Z" fill="#264ea0" stroke="#264ea0" stroke-width="1.51"/><path d="M1555,441L1541,259L1373,267Z" fill="#547bab" stroke="#547bab" stroke-width="1.51"/><path d="M678,1173L1250,1202L815,1130Z" fill="#255d95" stroke="#255d95" stroke-width="1.51"/><path d="M1203,1103L1250,1202L1305,988Z" fill="#214493" stroke="#214493" stroke-width="1.51"/><path d="M405,1180L1250,1202L678,1173Z" fill="#2e6593" stroke="#2e6593" stroke-width="1.51"/><path d="M1485,-18L1344,-103L1336,67Z" fill="#8c96aa" stroke="#8c96aa" stroke-width="1.51"/><path d="M1336,67L1344,-103L1153,-7Z" fill="#8ca0ae" stroke="#8ca0ae" stroke-width="1.51"/><path d="M1053,-121L1186,-238L936,-167Z" fill="#9dbbbb" stroke="#9dbbbb" stroke-width="1.51"/><path d="M804,-257L1624,-309L401,-288Z" fill="#a3c8ca" stroke="#a3c8ca" stroke-width="1.51"/><path d="M1344,-103L1186,-238L1153,-7Z" fill="#97a8b0" stroke="#97a8b0" stroke-width="1.51"/><path d="M-240,380L-81,589L19,439Z" fill="#a6d5bf" stroke="#a6d5bf" stroke-width="1.51"/><path d="M57,68L-90,85L-42,256Z" fill="#cbeab4" stroke="#cbeab4" stroke-width="1.51"/><path d="M-45,-30L57,68L105,9Z" fill="#d8f0b3" stroke="#d8f0b3" stroke-width="1.51"/><path d="M-107,1014L5,1094L51,895Z" fill="#9493a8" stroke="#9493a8" stroke-width="1.51"/><path d="M180,1112L5,1094L405,1180Z" fill="#7a8297" stroke="#7a8297" stroke-width="1.51"/><path d="M1555,441L1621,452L1541,259Z" fill="#4573a2" stroke="#4573a2" stroke-width="1.51"/><path d="M1714,551L1621,452L1461,546Z" fill="#32689f" stroke="#32689f" stroke-width="1.51"/><path d="M-60,779L-107,1014L51,895Z" fill="#96a0ad" stroke="#96a0ad" stroke-width="1.51"/><path d="M-81,589L-205,611L-60,779Z" fill="#9ec2be" stroke="#9ec2be" stroke-width="1.51"/><path d="M-240,380L19,439L-42,256Z" fill="#b0ddbc" stroke="#b0ddbc" stroke-width="1.51"/><path d="M183,-283L-45,-30L105,9Z" fill="#e0f3b3" stroke="#e0f3b3" stroke-width="1.51"/><path d="M183,-283L105,9L255,-186Z" fill="#ddf2b5" stroke="#ddf2b5" stroke-width="1.51"/><path d="M1693,240L1521,55L1541,259Z" fill="#667d9d" stroke="#667d9d" stroke-width="1.51"/><path d="M1541,259L1521,55L1373,267Z" fill="#6a83a9" stroke="#6a83a9" stroke-width="1.51"/><path d="M1521,55L1485,-18L1336,67Z" fill="#868fa9" stroke="#868fa9" stroke-width="1.51"/><path d="M1344,-103L1366,-257L1186,-238Z" fill="#9aa2b3" stroke="#9aa2b3" stroke-width="1.51"/><path d="M401,-288L183,-283L255,-186Z" fill="#d6efc0" stroke="#d6efc0" stroke-width="1.51"/><path d="M-306,268L-240,380L-42,256Z" fill="#b9e2c2" stroke="#b9e2c2" stroke-width="1.51"/><path d="M-204,75L-42,256L-90,85Z" fill="#cfecb8" stroke="#cfecb8" stroke-width="1.51"/><path d="M-194,943L-107,1014L-60,779Z" fill="#999fb0" stroke="#999fb0" stroke-width="1.51"/><path d="M1499,844L1615,831L1461,546Z" fill="#2854a0" stroke="#2854a0" stroke-width="1.51"/><path d="M1623,961L1615,831L1499,844Z" fill="#214192" stroke="#214192" stroke-width="1.51"/><path d="M1623,961L1499,844L1440,936Z" fill="#244097" stroke="#244097" stroke-width="1.51"/><path d="M-269,844L-194,943L-60,779Z" fill="#9ba6b7" stroke="#9ba6b7" stroke-width="1.51"/><path d="M-269,844L-60,779L-205,611Z" fill="#9eb6be" stroke="#9eb6be" stroke-width="1.51"/><path d="M1621,452L1693,240L1541,259Z" fill="#4d749b" stroke="#4d749b" stroke-width="1.51"/><path d="M1615,831L1714,551L1461,546Z" fill="#265d9e" stroke="#265d9e" stroke-width="1.51"/><path d="M1564,-237L1366,-257L1344,-103Z" fill="#9a97af" stroke="#9a97af" stroke-width="1.51"/><path d="M1186,-238L1366,-257L804,-257Z" fill="#9eb6c0" stroke="#9eb6c0" stroke-width="1.51"/><path d="M-186,-148L-204,75L-45,-30Z" fill="#e7f5b9" stroke="#e7f5b9" stroke-width="1.51"/><path d="M-45,-30L-204,75L-90,85Z" fill="#def2b7" stroke="#def2b7" stroke-width="1.51"/><path d="M1250,1202L1491,1163L1305,988Z" fill="#203b8c" stroke="#203b8c" stroke-width="1.51"/><path d="M1491,1163L1623,961L1440,936Z" fill="#243492" stroke="#243492" stroke-width="1.51"/><path d="M1615,831L1849,674L1714,551Z" fill="#1c518c" stroke="#1c518c" stroke-width="1.51"/><path d="M1485,-18L1564,-237L1344,-103Z" fill="#9693a7" stroke="#9693a7" stroke-width="1.51"/><path d="M1521,55L1705,-21L1485,-18Z" fill="#84879e" stroke="#84879e" stroke-width="1.51"/><path d="M1788,383L1693,240L1621,452Z" fill="#416d92" stroke="#416d92" stroke-width="1.51"/><path d="M-306,268L-269,844L-205,611Z" fill="#a6ccca" stroke="#a6ccca" stroke-width="1.51"/><path d="M-240,380L-306,268L-205,611Z" fill="#afdbc9" stroke="#afdbc9" stroke-width="1.51"/><path d="M-204,75L-306,268L-42,256Z" fill="#c8e8bf" stroke="#c8e8bf" stroke-width="1.51"/><path d="M1693,240L1731,169L1521,55Z" fill="#677b95" stroke="#677b95" stroke-width="1.51"/><path d="M1833,240L1731,169L1693,240Z" fill="#547289" stroke="#547289" stroke-width="1.51"/><path d="M1714,551L1788,383L1621,452Z" fill="#306793" stroke="#306793" stroke-width="1.51"/><path d="M1849,674L1788,383L1714,551Z" fill="#265d8c" stroke="#265d8c" stroke-width="1.51"/><path d="M-107,1014L-210,1096L5,1094Z" fill="#948ea4" stroke="#948ea4" stroke-width="1.51"/><path d="M5,1094L-210,1096L405,1180Z" fill="#858697" stroke="#858697" stroke-width="1.51"/><path d="M-194,943L-210,1096L-107,1014Z" fill="#9a93af" stroke="#9a93af" stroke-width="1.51"/><path d="M-269,844L-210,1096L-194,943Z" fill="#9c9bb5" stroke="#9c9bb5" stroke-width="1.51"/><path d="M1878,810L1849,674L1615,831Z" fill="#184483" stroke="#184483" stroke-width="1.51"/><path d="M1491,1163L1648,1062L1623,961Z" fill="#1e2e85" stroke="#1e2e85" stroke-width="1.51"/><path d="M183,-283L-16,-309L-45,-30Z" fill="#eaf7b9" stroke="#eaf7b9" stroke-width="1.51"/><path d="M-204,75L-258,-228L-306,268Z" fill="#e4f4c2" stroke="#e4f4c2" stroke-width="1.51"/><path d="M401,-288L-16,-309L183,-283Z" fill="#e3f4c3" stroke="#e3f4c3" stroke-width="1.51"/><path d="M1624,-309L-16,-309L401,-288Z" fill="#b0dccb" stroke="#b0dccb" stroke-width="1.51"/><path d="M-16,-309L-186,-148L-45,-30Z" fill="#f0f9b6" stroke="#f0f9b6" stroke-width="1.51"/><path d="M1910,166L1705,-21L1731,169Z" fill="#697887" stroke="#697887" stroke-width="1.51"/><path d="M1731,169L1705,-21L1521,55Z" fill="#778094" stroke="#778094" stroke-width="1.51"/><path d="M1705,-21L1564,-237L1485,-18Z" fill="#8c8a9b" stroke="#8c8a9b" stroke-width="1.51"/><path d="M1788,383L1833,240L1693,240Z" fill="#486d8a" stroke="#486d8a" stroke-width="1.51"/><path d="M1878,810L1615,831L1623,961Z" fill="#1a3c83" stroke="#1a3c83" stroke-width="1.51"/><path d="M1910,166L1833,240L1788,383Z" fill="#4b6f89" stroke="#4b6f89" stroke-width="1.51"/><path d="M1791,1064L1878,810L1623,961Z" fill="#17317a" stroke="#17317a" stroke-width="1.51"/><path d="M1849,674L1910,166L1788,383Z" fill="#35678c" stroke="#35678c" stroke-width="1.51"/><path d="M1648,1062L1791,1064L1623,961Z" fill="#1b2c7e" stroke="#1b2c7e" stroke-width="1.51"/><path d="M1491,1163L1791,1064L1648,1062Z" fill="#192979" stroke="#192979" stroke-width="1.51"/><path d="M-16,-309L-258,-228L-186,-148Z" fill="#f5fbc3" stroke="#f5fbc3" stroke-width="1.51"/><path d="M-186,-148L-258,-228L-204,75Z" fill="#f0f9bd" stroke="#f0f9bd" stroke-width="1.51"/><path d="M1920,-255L1624,-309L1705,-21Z" fill="#86838d" stroke="#86838d" stroke-width="1.51"/><path d="M1705,-21L1624,-309L1564,-237Z" fill="#8e899a" stroke="#8e899a" stroke-width="1.51"/><path d="M1564,-237L1624,-309L1366,-257Z" fill="#9a91b0" stroke="#9a91b0" stroke-width="1.51"/><path d="M1366,-257L1624,-309L804,-257Z" fill="#9da7bc" stroke="#9da7bc" stroke-width="1.51"/><path d="M1833,240L1910,166L1731,169Z" fill="#597388" stroke="#597388" stroke-width="1.51"/><path d="M1878,810L1910,166L1849,674Z" fill="#255d8c" stroke="#255d8c" stroke-width="1.51"/><path d="M1878,810L1900,1020L1910,166Z" fill="#1a5289" stroke="#1a5289" stroke-width="1.51"/><path d="M1791,1064L1900,1020L1878,810Z" fill="#172f79" stroke="#172f79" stroke-width="1.51"/><path d="M1910,166L1885,-67L1705,-21Z" fill="#747c86" stroke="#747c86" stroke-width="1.51"/><path d="M1910,166L1920,-255L1885,-67Z" fill="#7b7f86" stroke="#7b7f86" stroke-width="1.51"/><path d="M1885,-67L1920,-255L1705,-21Z" fill="#818186" stroke="#818186" stroke-width="1.51"/><path d="M1900,1020L1920,-255L1910,166Z" fill="#456c8a" stroke="#456c8a" stroke-width="1.51"/></svg>