<svg xmlns="http://www.w3.org/2000/svg" width="1440" height="900"><path d="M715,706L978,711L746,341Z" fill="#c8170c" stroke="#c8170c" stroke-width="1.51"/><path d="M978,711L1116,672L746,341Z" fill="#b11a0e" stroke="#b11a0e" stroke-width="1.51"/><path d="M746,341L372,328L715,706Z" fill="#e60e0a" stroke="#e60e0a" stroke-width="1.51"/><path d="M744,81L636,230L746,341Z" fill="#bf180d" stroke="#bf180d" stroke-width="1.51"/><path d="M1179,200L744,81L746,341Z" fill="#9f1b0e" stroke="#9f1b0e" stroke-width="1.51"/><path d="M1116,672L1179,200L746,341Z" fill="#b9190d" stroke="#b9190d" stroke-width="1.51"/><path d="M602,69L372,328L636,230Z" fill="#9c1b0e" stroke="#9c1b0e" stroke-width="1.51"/><path d="M636,230L372,328L746,341Z" fill="#bc190d" stroke="#bc190d" stroke-width="1.51"/><path d="M744,81L602,69L636,230Z" fill="#9f1b0e" stroke="#9f1b0e" stroke-width="1.51"/><path d="M978,711L986,1090L1116,672Z" fill="#661a0d" stroke="#661a0d" stroke-width="1.51"/><path d="M715,706L986,1090L978,711Z" fill="#7b1b0e" stroke="#7b1b0e" stroke-width="1.51"/><path d="M544,1100L986,1090L715,706Z" fill="#761b0e" stroke="#761b0e" stroke-width="1.51"/><path d="M1116,672L1462,543L1179,200Z" fill="#921b0e" stroke="#921b0e" stroke-width="1.51"/><path d="M1410,857L1462,543L1116,672Z" fill="#51170c" stroke="#51170c" stroke-width="1.51"/><path d="M372,328L219,562L715,706Z" fill="#b1190d" stroke="#b1190d" stroke-width="1.51"/><path d="M366,1003L544,1100L715,706Z" fill="#62190d" stroke="#62190d" stroke-width="1.51"/><path d="M986,1090L1410,857L1116,672Z" fill="#43150a" stroke="#43150a" stroke-width="1.51"/><path d="M219,562L366,1003L715,706Z" fill="#7a1a0e" stroke="#7a1a0e" stroke-width="1.51"/><path d="M986,1090L1103,1217L1410,857Z" fill="#43231b" stroke="#43231b" stroke-width="1.51"/><path d="M896,1351L1103,1217L986,1090Z" fill="#8c4e40" stroke="#8c4e40" stroke-width="1.51"/><path d="M1179,200L1217,-145L744,81Z" fill="#5c190d" stroke="#5c190d" stroke-width="1.51"/><path d="M744,81L718,-520L602,69Z" fill="#821d0e" stroke="#821d0e" stroke-width="1.51"/><path d="M1694,-64L1217,-145L1179,200Z" fill="#200c04" stroke="#200c04" stroke-width="1.51"/><path d="M1462,543L1603,315L1179,200Z" fill="#641a0e" stroke="#641a0e" stroke-width="1.51"/><path d="M2063,710L1603,315L1462,543Z" fill="#a74f3c" stroke="#a74f3c" stroke-width="1.51"/><path d="M475,1405L896,1351L544,1100Z" fill="#c56752" stroke="#c56752" stroke-width="1.51"/><path d="M544,1100L896,1351L986,1090Z" fill="#a54d3a" stroke="#a54d3a" stroke-width="1.51"/><path d="M1410,857L2063,710L1462,543Z" fill="#6c3b2f" stroke="#6c3b2f" stroke-width="1.51"/><path d="M1103,1217L1522,1058L1410,857Z" fill="#221917" stroke="#221917" stroke-width="1.51"/><path d="M1219,1602L1522,1058L1103,1217Z" fill="#65514c" stroke="#65514c" stroke-width="1.51"/><path d="M372,328L-113,416L219,562Z" fill="#8e1b0e" stroke="#8e1b0e" stroke-width="1.51"/><path d="M602,69L138,-60L372,328Z" fill="#671a0d" stroke="#671a0d" stroke-width="1.51"/><path d="M256,-567L138,-60L602,69Z" fill="#52190c" stroke="#52190c" stroke-width="1.51"/><path d="M336,1367L475,1405L544,1100Z" fill="#a05f50" stroke="#a05f50" stroke-width="1.51"/><path d="M336,1367L544,1100L366,1003Z" fill="#753e32" stroke="#753e32" stroke-width="1.51"/><path d="M138,-60L-113,416L372,328Z" fill="#59180d" stroke="#59180d" stroke-width="1.51"/><path d="M219,562L18,1051L366,1003Z" fill="#381409" stroke="#381409" stroke-width="1.51"/><path d="M-113,416L-112,673L219,562Z" fill="#681a0d" stroke="#681a0d" stroke-width="1.51"/><path d="M1217,-145L895,-500L744,81Z" fill="#6d1d0e" stroke="#6d1d0e" stroke-width="1.51"/><path d="M1694,-64L1333,-315L1217,-145Z" fill="#210f05" stroke="#210f05" stroke-width="1.51"/><path d="M18,1051L336,1367L366,1003Z" fill="#51342c" stroke="#51342c" stroke-width="1.51"/><path d="M-112,673L18,1051L219,562Z" fill="#361308" stroke="#361308" stroke-width="1.51"/><path d="M1603,315L1694,-64L1179,200Z" fill="#452017" stroke="#452017" stroke-width="1.51"/><path d="M1775,-176L1694,-64L2049,233Z" fill="#5c4e4b" stroke="#5c4e4b" stroke-width="1.51"/><path d="M1333,-315L895,-500L1217,-145Z" fill="#691e0e" stroke="#691e0e" stroke-width="1.51"/><path d="M895,-500L718,-520L744,81Z" fill="#aa220d" stroke="#aa220d" stroke-width="1.51"/><path d="M896,1351L1219,1602L1103,1217Z" fill="#a97366" stroke="#a97366" stroke-width="1.51"/><path d="M1022,1820L1219,1602L896,1351Z" fill="#c98d7e" stroke="#c98d7e" stroke-width="1.51"/><path d="M475,1405L509,1612L896,1351Z" fill="#f4917a" stroke="#f4917a" stroke-width="1.51"/><path d="M336,1367L509,1612L475,1405Z" fill="#cc8978" stroke="#cc8978" stroke-width="1.51"/><path d="M52,1559L509,1612L336,1367Z" fill="#b5877c" stroke="#b5877c" stroke-width="1.51"/><path d="M-113,416L-389,386L-112,673Z" fill="#9b200d" stroke="#9b200d" stroke-width="1.51"/><path d="M138,-60L-164,-5L-113,416Z" fill="#3b1509" stroke="#3b1509" stroke-width="1.51"/><path d="M-185,-432L-164,-5L138,-60Z" fill="#2c1307" stroke="#2c1307" stroke-width="1.51"/><path d="M18,1051L-4,1314L336,1367Z" fill="#514440" stroke="#514440" stroke-width="1.51"/><path d="M-346,1270L-4,1314L18,1051Z" fill="#53403a" stroke="#53403a" stroke-width="1.51"/><path d="M1694,-64L1775,-176L1333,-315Z" fill="#402c26" stroke="#402c26" stroke-width="1.51"/><path d="M1333,-315L1422,-520L895,-500Z" fill="#7b230e" stroke="#7b230e" stroke-width="1.51"/><path d="M2049,233L1694,-64L1603,315Z" fill="#7d4f44" stroke="#7d4f44" stroke-width="1.51"/><path d="M895,-500L1422,-520L718,-520Z" fill="#b2270c" stroke="#b2270c" stroke-width="1.51"/><path d="M1775,-176L1422,-520L1333,-315Z" fill="#53281a" stroke="#53281a" stroke-width="1.51"/><path d="M1522,1058L2063,710L1410,857Z" fill="#45332f" stroke="#45332f" stroke-width="1.51"/><path d="M1942,1114L2063,710L1522,1058Z" fill="#4c4a4a" stroke="#4c4a4a" stroke-width="1.51"/><path d="M2063,710L2049,233L1603,315Z" fill="#dc765e" stroke="#dc765e" stroke-width="1.51"/><path d="M1691,1480L1942,1114L1522,1058Z" fill="#6d6d6d" stroke="#6d6d6d" stroke-width="1.51"/><path d="M-164,-5L-389,386L-113,416Z" fill="#7b1f0e" stroke="#7b1f0e" stroke-width="1.51"/><path d="M-112,673L-396,744L18,1051Z" fill="#46180b" stroke="#46180b" stroke-width="1.51"/><path d="M718,-520L256,-567L602,69Z" fill="#99220d" stroke="#99220d" stroke-width="1.51"/><path d="M1422,-520L256,-567L718,-520Z" fill="#e12708" stroke="#e12708" stroke-width="1.51"/><path d="M-389,386L-396,744L-112,673Z" fill="#92220e" stroke="#92220e" stroke-width="1.51"/><path d="M1219,1602L1691,1480L1522,1058Z" fill="#6a6a6a" stroke="#6a6a6a" stroke-width="1.51"/><path d="M2049,233L1846,-287L1775,-176Z" fill="#545252" stroke="#545252" stroke-width="1.51"/><path d="M1775,-176L1846,-287L1422,-520Z" fill="#714335" stroke="#714335" stroke-width="1.51"/><path d="M1219,1602L1471,1764L1691,1480Z" fill="#808080" stroke="#808080" stroke-width="1.51"/><path d="M509,1612L1022,1820L896,1351Z" fill="#fd9982" stroke="#fd9982" stroke-width="1.51"/><path d="M509,1612L-121,1711L1022,1820Z" fill="#da917f" stroke="#da917f" stroke-width="1.51"/><path d="M-4,1314L52,1559L336,1367Z" fill="#7c6b67" stroke="#7c6b67" stroke-width="1.51"/><path d="M-121,1711L52,1559L-4,1314Z" fill="#837b78" stroke="#837b78" stroke-width="1.51"/><path d="M1942,1114L1970,1287L2063,710Z" fill="#737373" stroke="#737373" stroke-width="1.51"/><path d="M1691,1480L1970,1287L1942,1114Z" fill="#9c9c9c" stroke="#9c9c9c" stroke-width="1.51"/><path d="M-389,386L-481,982L-396,744Z" fill="#8f230d" stroke="#8f230d" stroke-width="1.51"/><path d="M-164,-5L-406,20L-389,386Z" fill="#6d1f0e" stroke="#6d1f0e" stroke-width="1.51"/><path d="M-185,-432L-406,20L-164,-5Z" fill="#44190b" stroke="#44190b" stroke-width="1.51"/><path d="M1691,1480L1940,1677L1970,1287Z" fill="#cdcdcd" stroke="#cdcdcd" stroke-width="1.51"/><path d="M1022,1820L1471,1764L1219,1602Z" fill="#9f827a" stroke="#9f827a" stroke-width="1.51"/><path d="M-396,744L-481,982L18,1051Z" fill="#43180b" stroke="#43180b" stroke-width="1.51"/><path d="M-406,20L-481,982L-389,386Z" fill="#cc240a" stroke="#cc240a" stroke-width="1.51"/><path d="M-481,982L-346,1270L18,1051Z" fill="#573226" stroke="#573226" stroke-width="1.51"/><path d="M256,-567L-185,-432L138,-60Z" fill="#4b1a0b" stroke="#4b1a0b" stroke-width="1.51"/><path d="M52,1559L-121,1711L509,1612Z" fill="#927e79" stroke="#927e79" stroke-width="1.51"/><path d="M-346,1270L-121,1711L-4,1314Z" fill="#93776e" stroke="#93776e" stroke-width="1.51"/><path d="M1471,1764L1940,1677L1691,1480Z" fill="#aeaeae" stroke="#aeaeae" stroke-width="1.51"/><path d="M1970,1287L1940,1677L2063,710Z" fill="#a2a2a2" stroke="#a2a2a2" stroke-width="1.51"/><path d="M-346,1270L-485,1616L-121,1711Z" fill="#c48f7e" stroke="#c48f7e" stroke-width="1.51"/><path d="M-481,982L-485,1616L-346,1270Z" fill="#a86651" stroke="#a86651" stroke-width="1.51"/><path d="M-185,-432L-462,-584L-406,20Z" fill="#81260e" stroke="#81260e" stroke-width="1.51"/><path d="M-406,20L-462,-584L-481,982Z" fill="#86230e" stroke="#86230e" stroke-width="1.51"/><path d="M256,-567L-462,-584L-185,-432Z" fill="#89270d" stroke="#89270d" stroke-width="1.51"/></svg>